<svg width="18" height="17" viewBox="0 0 18 17" fill="none" xmlns="http://www.w3.org/2000/svg">
<path d="M16.9313 15.5851L13.0077 11.6615C13.9818 10.4583 14.5683 8.92931 14.5683 7.26407C14.5683 3.40453 11.4279 0.26413 7.56833 0.26413C3.70879 0.26413 0.56842 3.4045 0.56842 7.26404C0.56842 11.1236 3.70882 14.264 7.56836 14.264C9.2336 14.264 10.7625 13.6775 11.9658 12.7034L15.8894 16.627C16.0331 16.7707 16.2217 16.8429 16.4104 16.8429C16.599 16.8429 16.7876 16.7707 16.9313 16.627C17.2194 16.3389 17.2194 15.8732 16.9313 15.5851ZM7.56836 12.7903C4.5208 12.7903 2.0421 10.3116 2.0421 7.26404C2.0421 4.21648 4.5208 1.73778 7.56836 1.73778C10.6159 1.73778 13.0946 4.21648 13.0946 7.26404C13.0946 10.3116 10.6159 12.7903 7.56836 12.7903Z" fill="#868889"/>
</svg>
